<?xml version="1.0" encoding="UTF-8" standalone="no"?>
<svg
   xmlns:dc="http://purl.org/dc/elements/1.1/"
   xmlns:cc="http://creativecommons.org/ns#"
   xmlns:rdf="http://www.w3.org/1999/02/22-rdf-syntax-ns#"
   xmlns:svg="http://www.w3.org/2000/svg"
   xmlns="http://www.w3.org/2000/svg"
   xmlns:sodipodi="http://sodipodi.sourceforge.net/DTD/sodipodi-0.dtd"
   xmlns:inkscape="http://www.inkscape.org/namespaces/inkscape"
   width="175.15234pt"
   height="175.15234pt"
   viewBox="0 0 175.15235 175.15235"
   version="1.1"
   id="svg2"
   inkscape:version="0.91 r13725"
   sodipodi:docname="budgie-gcc.svg"
   inkscape:export-filename="/home/yurihenriq/Documentos/budgie2.svg.png"
   inkscape:export-xdpi="751.22449"
   inkscape:export-ydpi="751.22449">
  <metadata
     id="metadata26">
    <rdf:RDF>
      <cc:Work
         rdf:about="">
        <dc:format>image/svg+xml</dc:format>
        <dc:type
           rdf:resource="http://purl.org/dc/dcmitype/StillImage" />
        <dc:title></dc:title>
      </cc:Work>
    </rdf:RDF>
  </metadata>
  <defs
     id="defs24" />
  <sodipodi:namedview
     pagecolor="#ffffff"
     bordercolor="#666666"
     borderopacity="1"
     objecttolerance="10"
     gridtolerance="10"
     guidetolerance="10"
     inkscape:pageopacity="0"
     inkscape:pageshadow="2"
     inkscape:window-width="1920"
     inkscape:window-height="1017"
     id="namedview22"
     showgrid="true"
     inkscape:zoom="2.7245258"
     inkscape:cx="37.376999"
     inkscape:cy="103.86813"
     inkscape:window-x="0"
     inkscape:window-y="35"
     inkscape:window-maximized="1"
     inkscape:current-layer="svg2"
     fit-margin-top="0"
     fit-margin-left="0"
     fit-margin-right="0"
     fit-margin-bottom="0">
    <inkscape:grid
       type="xygrid"
       id="grid4143"
       originx="0"
       originy="-12.332417" />
  </sodipodi:namedview>
  <path
     d="M 0,0 83.930139,0 C 63.921666,0.90257068 44.252774,8.7308073 29.346952,22.153196 11.769165,37.586262 1.0812976,60.356065 0,83.688859 L 0,0 Z"
     id="path4"
     style="opacity:0;fill:#ffffff"
     inkscape:connector-curvature="0" />
  <path
     d="m 83.930139,0 8.239309,0 c 19.481232,1.19747 38.596072,8.7576167 53.206992,21.768933 17.90843,15.522429 28.8197,38.622878 29.7759,62.277379 l 0,8.123133 c -1.19748,19.445495 -8.73081,38.524575 -21.70638,53.126565 -15.38839,17.81908 -38.25649,28.67673 -61.732265,29.85633 l -8.0159,0 C 63.769748,174.17828 44.199155,166.37685 29.346952,153.00808 11.813847,137.61076 1.1438519,114.92138 0,91.651139 l 0,-7.96228 C 1.0812976,60.356065 11.769165,37.586262 29.346952,22.153196 44.252774,8.7308073 63.921666,0.90257068 83.930139,0 Z"
     id="path6"
     inkscape:connector-curvature="0"
     style="fill:#404552" />
  <path
     d="m 92.169448,0 82.982892,0 0,84.046312 C 174.19614,60.391811 163.28487,37.291362 145.37644,21.768933 130.76552,8.7576167 111.65068,1.19747 92.169448,0 Z"
     id="path8"
     style="opacity:0;fill:#ffffff"
     inkscape:connector-curvature="0" />
  <path
     d="m 86.146353,52.161438 c 7.586954,-5.486915 17.479487,-6.443104 26.549877,-5.594151 9.63338,1.081298 19.41867,4.807753 25.92433,12.251728 4.41455,4.843497 6.69332,11.21511 7.58695,17.622469 0.32171,2.412813 0.63449,4.834562 0.7864,7.265247 0.7864,12.787911 -3.91411,25.486449 -11.68873,35.521969 -8.44485,8.97209 -19.67783,15.16497 -31.58998,18.15865 -17.416929,4.34307 -36.630068,1.68003 -51.90228,-7.87292 C 42.170606,123.50921 34.270878,114.5818 29.945688,104.03691 26.138805,93.715436 26.183487,82.402025 28.203101,71.705222 c 1.688969,6.478849 6.657576,12.028319 13.091743,14.02112 5.915859,1.858765 13.261534,1.197476 17.658216,-3.565598 9.972959,-9.177626 15.969245,-22.11745 27.193293,-29.999306 z"
     id="path10"
     inkscape:connector-curvature="0"
     style="fill:#ffffff" />
  <path
     d="m 115.88651,68.36303 c 1.64428,-3.431557 6.18395,-3.565602 8.91846,-1.376198 -0.56298,0.169791 -1.68896,0.518308 -2.25195,0.697035 0.0447,0.670226 0.11617,2.019614 0.16085,2.689839 1.21534,0.125109 2.41281,-0.125109 3.57454,-0.482562 -0.25022,2.520049 -1.19747,5.415424 -3.98561,6.067777 -4.36094,1.688969 -8.704,-3.565601 -6.41629,-7.595891 z"
     id="path12"
     inkscape:connector-curvature="0"
     style="fill:#404552" />
  <path
     d="m 146.20751,76.441484 c 2.79708,0.965125 5.61203,1.876632 8.41804,2.797076 -2.56473,1.456623 -5.12052,2.922184 -7.63164,4.468171 -0.15191,-2.430685 -0.46469,-4.852434 -0.7864,-7.265247 z"
     id="path14"
     inkscape:connector-curvature="0"
     style="fill:#5294e2" />
  <path
     d="m 68.53282,89.917494 c 1.858759,-3.306453 5.361806,-5.335001 9.061452,-5.853309 6.827367,-0.750653 13.502816,5.549472 12.582372,12.466201 -1.19747,4.369864 -3.976673,8.882734 -8.614635,10.107004 -11.83172,2.70772 -23.547266,-1.61748 -34.842805,-4.70945 8.319736,-1.17066 17.300762,-4.432428 21.813616,-12.010446 z"
     id="path16"
     inkscape:connector-curvature="0"
     style="fill:#5294e2" />
  <path
     d="m 0,91.651139 c 1.1438519,23.270241 11.813847,45.959621 29.346952,61.356941 14.852203,13.36877 34.422796,21.1702 54.350843,22.14426 L 0,175.15234 0,91.651139 Z"
     id="path18"
     style="opacity:0;fill:#ffffff"
     inkscape:connector-curvature="0" />
  <path
     d="m 153.44596,145.29601 c 12.97557,-14.60199 20.5089,-33.68107 21.70638,-53.126565 l 0,82.982895 -83.438645,0 c 23.475775,-1.1796 46.343875,-12.03725 61.732265,-29.85633 z"
     id="path20"
     style="opacity:0;fill:#ffffff"
     inkscape:connector-curvature="0" />
  <circle
     style="fill:#404552;fill-opacity:1;stroke:#404552;stroke-width:0.71490747;stroke-opacity:1"
     id="path3362"
     cx="120.85024"
     cy="70.898705"
     r="5.2643404" />
  <ellipse
     style="fill:#ffffff;fill-opacity:1;stroke:#ffffff;stroke-width:0.71490747;stroke-opacity:1"
     id="path3370"
     cx="123.72021"
     cy="68.422333"
     rx="1.5415827"
     ry="1.508783" />
</svg>
